Before Download: note that this is NORWEGIAN subs, dont complain about it if you 

didnt read the descripton.


Format                           : AVI
Format/Info                      : Audio Video Interleave
File size                        : 902 MiB
Duration                         : 1h 26mn
Overall bit rate                 : 1 459 Kbps
Writing application              : VirtualDubMod 1.5.10.2 (build 2542/release)
Writing library                  : VirtualDubMod build 2542/release
Original source form             : MAX TORRENTZ


Video
Format                           : xvid
Codec ID                         : xvid
Duration                         : 1h 26mn
Bit rate                         : 1 328 Kbps
Width                            : 720 pixels
Height                           : 320 pixels
Display aspect ratio             : 2.25:1
Frame rate                       : 25.000 fps
Resolution                       : 24 bits
Bits/(Pixel*Frame)               : 0.231
Stream size                      : 821 MiB (91%)

Audio
ID                               : 1
Format                           : MPEG Audio
Format version                   : Version 1
Format profile                   : Layer 3
Codec ID                         : 55
Codec ID/Hint                    : MP3
Duration                         : 1h 20mn
Bit rate mode                    : Constant
Bit rate                         : 128 Kbps
Channel(s)                       : 2 channels
Sampling rate                    : 44.1 KHz
Resolution                       : 16 bits
Stream size                      : 73.8 MiB (8%)
Alignment                        : Aligned on interleaves
Interleave, duration             : 28 ms (0.70 video frame)
Interleave, preload duration     : 26 ms
  